<?xml version="1.0" encoding="UTF-8" standalone="no"?><!DOCTYPE svg PUBLIC "-//W3C//DTD SVG 1.1//EN" "http://www.w3.org/Graphics/SVG/1.1/DTD/svg11.dtd"><svg width="100%" height="100%" viewBox="0 0 640 640" version="1.1" xmlns="http://www.w3.org/2000/svg" xmlns:xlink="http://www.w3.org/1999/xlink" xml:space="preserve" xmlns:serif="http://www.serif.com/" style="fill-rule:evenodd;clip-rule:evenodd;stroke-linejoin:round;stroke-miterlimit:2;"><path d="M544,194.56l0,250.88c0,54.397 -44.164,98.56 -98.56,98.56l-250.88,0c-54.397,0 -98.56,-44.163 -98.56,-98.56l0,-250.88c0,-54.396 44.163,-98.56 98.56,-98.56l250.88,0c54.396,0 98.56,44.164 98.56,98.56Zm-237.713,206.169c-18.251,-0.001 -29.869,-11.134 -29.869,-25.278c0,-60.471 158.111,-72.562 158.111,-136.788c0,-39.179 -45.125,-56.061 -102.721,-56.061c-35.042,0 -74.661,6.525 -111.451,18.19l0,76.607c54.219,-39.711 114.462,-56.713 153.275,-56.713c24.395,0 40.958,6.843 40.958,19.118c0,50.539 -218.08,42.524 -218.08,151.739c0,41.87 28.623,65.855 68.896,65.855c60.912,0 106.979,-59.528 141.443,-132.089l6.981,2.509c-18.16,44.349 -55.71,92.972 -63.041,124.227l78.418,0l0,-161.701l-18.099,0c-26.297,57.444 -64.82,110.384 -104.82,110.386l-0.002,0Z" style="fill:#a7f175;"/></svg>