<?xml version="1.0" encoding="iso-8859-1"?>
<!-- Generator: Adobe Illustrator 25.2.3, SVG Export Plug-In . SVG Version: 6.00 Build 0)  -->
<svg version="1.1" baseProfile="basic" id="fluent" xmlns="http://www.w3.org/2000/svg" xmlns:xlink="http://www.w3.org/1999/xlink"
	 x="0px" y="0px" viewBox="0 0 24 24" xml:space="preserve">
<path d="M22,5.75v12.48c0,0.49-0.28,0.94-0.72,1.15c-0.91,0.43-2.46,1.18-3.33,1.59c0.03-0.16,0.05-0.33,0.05-0.5V3.53
	C18,3.3,17.97,3.12,17.94,3c0.94,0.46,2.44,1.18,3.33,1.6C21.72,4.81,22,5.26,22,5.75z"/>
<path d="M3.91,13.35c0.89,0.8,1.73,1.56,2.51,2.28l-1.48,1.12c-0.37,0.28-0.89,0.27-1.25-0.03l-0.94-0.79
	c-0.46-0.39-0.48-1.09-0.03-1.5C3.05,14.13,3.46,13.76,3.91,13.35z"/>
<path d="M16,3.53v4.81l-3.16,2.4l-3.3-2.5c2.29-2.07,4.46-4.05,5.59-5.1c0.23-0.22,0.56-0.16,0.74,0.04
	c0.05,0.06,0.09,0.13,0.11,0.22C15.99,3.44,16,3.48,16,3.53z"/>
<path d="M16,20.47v-4.81L4.938,7.252c-0.372-0.283-0.889-0.27-1.247,0.03L2.754,8.066C2.289,8.456,2.271,9.162,2.72,9.569
	c2.747,2.488,9.998,9.06,12.41,11.291C15.462,21.167,16,20.93,16,20.47z"/>
</svg>